<mxfile host="app.diagrams.net" agent="Mozilla/5.0 (Windows NT 10.0; Win64; x64) AppleWebKit/537.36 (KHTML, like Gecko) Chrome/132.0.0.0 Safari/537.36" version="26.0.14" pages="2">
  <diagram name="Company" id="OdkpXDXyU1xdkmeu7ZH9">
    <mxGraphModel dx="1050" dy="557" grid="1" gridSize="10" guides="1" tooltips="1" connect="1" arrows="1" fold="1" page="1" pageScale="1" pageWidth="827" pageHeight="1169" math="0" shadow="0">
      <root>
        <mxCell id="0" />
        <mxCell id="1" parent="0" />
        <mxCell id="xJ2DvLLHTlsbSx-dN-3g-1" value="Pessoa" style="rounded=0;whiteSpace=wrap;html=1;" vertex="1" parent="1">
          <mxGeometry x="150" y="210" width="120" height="60" as="geometry" />
        </mxCell>
        <mxCell id="xJ2DvLLHTlsbSx-dN-3g-15" style="edgeStyle=orthogonalEdgeStyle;rounded=0;orthogonalLoop=1;jettySize=auto;html=1;entryX=0.5;entryY=0;entryDx=0;entryDy=0;" edge="1" parent="1" source="xJ2DvLLHTlsbSx-dN-3g-2" target="xJ2DvLLHTlsbSx-dN-3g-5">
          <mxGeometry relative="1" as="geometry" />
        </mxCell>
        <mxCell id="xJ2DvLLHTlsbSx-dN-3g-2" value="Banco&lt;div&gt;&lt;br&gt;&lt;/div&gt;" style="rounded=0;whiteSpace=wrap;html=1;" vertex="1" parent="1">
          <mxGeometry x="400" y="70" width="120" height="60" as="geometry" />
        </mxCell>
        <mxCell id="xJ2DvLLHTlsbSx-dN-3g-17" style="edgeStyle=orthogonalEdgeStyle;rounded=0;orthogonalLoop=1;jettySize=auto;html=1;entryX=1;entryY=0.5;entryDx=0;entryDy=0;" edge="1" parent="1" source="xJ2DvLLHTlsbSx-dN-3g-3" target="xJ2DvLLHTlsbSx-dN-3g-5">
          <mxGeometry relative="1" as="geometry" />
        </mxCell>
        <mxCell id="xJ2DvLLHTlsbSx-dN-3g-3" value="&lt;div&gt;Company&lt;/div&gt;" style="rounded=0;whiteSpace=wrap;html=1;" vertex="1" parent="1">
          <mxGeometry x="450" y="210" width="120" height="60" as="geometry" />
        </mxCell>
        <mxCell id="xJ2DvLLHTlsbSx-dN-3g-16" style="edgeStyle=orthogonalEdgeStyle;rounded=0;orthogonalLoop=1;jettySize=auto;html=1;entryX=0.5;entryY=1;entryDx=0;entryDy=0;" edge="1" parent="1" source="xJ2DvLLHTlsbSx-dN-3g-4" target="xJ2DvLLHTlsbSx-dN-3g-5">
          <mxGeometry relative="1" as="geometry" />
        </mxCell>
        <mxCell id="xJ2DvLLHTlsbSx-dN-3g-4" value="&lt;div&gt;Owner&lt;/div&gt;" style="rounded=0;whiteSpace=wrap;html=1;" vertex="1" parent="1">
          <mxGeometry x="300" y="310" width="120" height="60" as="geometry" />
        </mxCell>
        <mxCell id="xJ2DvLLHTlsbSx-dN-3g-5" value="U" style="ellipse;whiteSpace=wrap;html=1;aspect=fixed;" vertex="1" parent="1">
          <mxGeometry x="340" y="220" width="40" height="40" as="geometry" />
        </mxCell>
        <mxCell id="xJ2DvLLHTlsbSx-dN-3g-6" value="&lt;u&gt;Licença&lt;/u&gt;" style="ellipse;whiteSpace=wrap;html=1;" vertex="1" parent="1">
          <mxGeometry x="230" y="120" width="80" height="40" as="geometry" />
        </mxCell>
        <mxCell id="xJ2DvLLHTlsbSx-dN-3g-7" value="Nome" style="ellipse;whiteSpace=wrap;html=1;" vertex="1" parent="1">
          <mxGeometry x="150" y="90" width="80" height="40" as="geometry" />
        </mxCell>
        <mxCell id="xJ2DvLLHTlsbSx-dN-3g-22" style="edgeStyle=orthogonalEdgeStyle;rounded=0;orthogonalLoop=1;jettySize=auto;html=1;entryX=0.5;entryY=1;entryDx=0;entryDy=0;exitX=0.5;exitY=1;exitDx=0;exitDy=0;" edge="1" parent="1" source="xJ2DvLLHTlsbSx-dN-3g-8" target="xJ2DvLLHTlsbSx-dN-3g-1">
          <mxGeometry relative="1" as="geometry" />
        </mxCell>
        <mxCell id="xJ2DvLLHTlsbSx-dN-3g-8" value="Endereço" style="ellipse;whiteSpace=wrap;html=1;" vertex="1" parent="1">
          <mxGeometry x="40" y="260" width="80" height="40" as="geometry" />
        </mxCell>
        <mxCell id="xJ2DvLLHTlsbSx-dN-3g-23" style="edgeStyle=orthogonalEdgeStyle;rounded=0;orthogonalLoop=1;jettySize=auto;html=1;entryX=0;entryY=0.5;entryDx=0;entryDy=0;exitX=0.5;exitY=1;exitDx=0;exitDy=0;" edge="1" parent="1" source="xJ2DvLLHTlsbSx-dN-3g-9" target="xJ2DvLLHTlsbSx-dN-3g-1">
          <mxGeometry relative="1" as="geometry" />
        </mxCell>
        <mxCell id="xJ2DvLLHTlsbSx-dN-3g-9" value="&lt;u&gt;CPF&lt;/u&gt;" style="ellipse;whiteSpace=wrap;html=1;" vertex="1" parent="1">
          <mxGeometry x="40" y="150" width="80" height="40" as="geometry" />
        </mxCell>
        <mxCell id="xJ2DvLLHTlsbSx-dN-3g-19" style="edgeStyle=orthogonalEdgeStyle;rounded=0;orthogonalLoop=1;jettySize=auto;html=1;entryX=0.5;entryY=1;entryDx=0;entryDy=0;" edge="1" parent="1" source="xJ2DvLLHTlsbSx-dN-3g-10" target="xJ2DvLLHTlsbSx-dN-3g-2">
          <mxGeometry relative="1" as="geometry" />
        </mxCell>
        <mxCell id="xJ2DvLLHTlsbSx-dN-3g-10" value="&lt;u&gt;Bnome&lt;/u&gt;" style="ellipse;whiteSpace=wrap;html=1;" vertex="1" parent="1">
          <mxGeometry x="550" y="130" width="80" height="40" as="geometry" />
        </mxCell>
        <mxCell id="xJ2DvLLHTlsbSx-dN-3g-18" style="edgeStyle=orthogonalEdgeStyle;rounded=0;orthogonalLoop=1;jettySize=auto;html=1;entryX=0.5;entryY=0;entryDx=0;entryDy=0;" edge="1" parent="1" source="xJ2DvLLHTlsbSx-dN-3g-11" target="xJ2DvLLHTlsbSx-dN-3g-2">
          <mxGeometry relative="1" as="geometry" />
        </mxCell>
        <mxCell id="xJ2DvLLHTlsbSx-dN-3g-11" value="Bendereço" style="ellipse;whiteSpace=wrap;html=1;" vertex="1" parent="1">
          <mxGeometry x="550" y="30" width="80" height="40" as="geometry" />
        </mxCell>
        <mxCell id="xJ2DvLLHTlsbSx-dN-3g-20" style="edgeStyle=orthogonalEdgeStyle;rounded=0;orthogonalLoop=1;jettySize=auto;html=1;entryX=1;entryY=0.5;entryDx=0;entryDy=0;" edge="1" parent="1" source="xJ2DvLLHTlsbSx-dN-3g-12" target="xJ2DvLLHTlsbSx-dN-3g-3">
          <mxGeometry relative="1" as="geometry" />
        </mxCell>
        <mxCell id="xJ2DvLLHTlsbSx-dN-3g-12" value="Cendereço" style="ellipse;whiteSpace=wrap;html=1;" vertex="1" parent="1">
          <mxGeometry x="610" y="220" width="80" height="40" as="geometry" />
        </mxCell>
        <mxCell id="xJ2DvLLHTlsbSx-dN-3g-21" style="edgeStyle=orthogonalEdgeStyle;rounded=0;orthogonalLoop=1;jettySize=auto;html=1;entryX=0.5;entryY=1;entryDx=0;entryDy=0;" edge="1" parent="1" source="xJ2DvLLHTlsbSx-dN-3g-13" target="xJ2DvLLHTlsbSx-dN-3g-3">
          <mxGeometry relative="1" as="geometry" />
        </mxCell>
        <mxCell id="xJ2DvLLHTlsbSx-dN-3g-13" value="&lt;u&gt;Cnome&lt;/u&gt;" style="ellipse;whiteSpace=wrap;html=1;" vertex="1" parent="1">
          <mxGeometry x="610" y="300" width="80" height="40" as="geometry" />
        </mxCell>
        <mxCell id="xJ2DvLLHTlsbSx-dN-3g-14" style="edgeStyle=orthogonalEdgeStyle;rounded=0;orthogonalLoop=1;jettySize=auto;html=1;entryX=0;entryY=0.5;entryDx=0;entryDy=0;" edge="1" parent="1" source="xJ2DvLLHTlsbSx-dN-3g-1" target="xJ2DvLLHTlsbSx-dN-3g-5">
          <mxGeometry relative="1" as="geometry" />
        </mxCell>
        <mxCell id="xJ2DvLLHTlsbSx-dN-3g-24" style="edgeStyle=orthogonalEdgeStyle;rounded=0;orthogonalLoop=1;jettySize=auto;html=1;entryX=0.327;entryY=0.037;entryDx=0;entryDy=0;entryPerimeter=0;" edge="1" parent="1" source="xJ2DvLLHTlsbSx-dN-3g-7" target="xJ2DvLLHTlsbSx-dN-3g-1">
          <mxGeometry relative="1" as="geometry" />
        </mxCell>
        <mxCell id="xJ2DvLLHTlsbSx-dN-3g-25" style="edgeStyle=orthogonalEdgeStyle;rounded=0;orthogonalLoop=1;jettySize=auto;html=1;entryX=0.7;entryY=0.037;entryDx=0;entryDy=0;entryPerimeter=0;" edge="1" parent="1" source="xJ2DvLLHTlsbSx-dN-3g-6" target="xJ2DvLLHTlsbSx-dN-3g-1">
          <mxGeometry relative="1" as="geometry" />
        </mxCell>
      </root>
    </mxGraphModel>
  </diagram>
  <diagram id="SFo4qQziihpyPGAoiZGc" name="Página-2">
    <mxGraphModel dx="1877" dy="557" grid="1" gridSize="10" guides="1" tooltips="1" connect="1" arrows="1" fold="1" page="1" pageScale="1" pageWidth="827" pageHeight="1169" math="0" shadow="0">
      <root>
        <mxCell id="0" />
        <mxCell id="1" parent="0" />
        <mxCell id="Cgh1rcnJDEIhUa558S9z-11" style="edgeStyle=orthogonalEdgeStyle;rounded=0;orthogonalLoop=1;jettySize=auto;html=1;entryX=1;entryY=0.5;entryDx=0;entryDy=0;" edge="1" parent="1" source="Cgh1rcnJDEIhUa558S9z-1" target="Cgh1rcnJDEIhUa558S9z-6">
          <mxGeometry relative="1" as="geometry" />
        </mxCell>
        <mxCell id="Cgh1rcnJDEIhUa558S9z-14" style="edgeStyle=orthogonalEdgeStyle;rounded=0;orthogonalLoop=1;jettySize=auto;html=1;entryX=0.5;entryY=0;entryDx=0;entryDy=0;" edge="1" parent="1" source="Cgh1rcnJDEIhUa558S9z-1" target="Cgh1rcnJDEIhUa558S9z-12">
          <mxGeometry relative="1" as="geometry" />
        </mxCell>
        <mxCell id="Cgh1rcnJDEIhUa558S9z-40" style="edgeStyle=orthogonalEdgeStyle;rounded=0;orthogonalLoop=1;jettySize=auto;html=1;exitX=1;exitY=0.5;exitDx=0;exitDy=0;entryX=0.5;entryY=0;entryDx=0;entryDy=0;" edge="1" parent="1" source="Cgh1rcnJDEIhUa558S9z-1" target="Cgh1rcnJDEIhUa558S9z-39">
          <mxGeometry relative="1" as="geometry" />
        </mxCell>
        <mxCell id="Cgh1rcnJDEIhUa558S9z-1" value="Produto" style="rounded=0;whiteSpace=wrap;html=1;" vertex="1" parent="1">
          <mxGeometry x="430" y="110" width="120" height="60" as="geometry" />
        </mxCell>
        <mxCell id="Cgh1rcnJDEIhUa558S9z-42" style="edgeStyle=orthogonalEdgeStyle;rounded=0;orthogonalLoop=1;jettySize=auto;html=1;entryX=0.5;entryY=1;entryDx=0;entryDy=0;" edge="1" parent="1" source="Cgh1rcnJDEIhUa558S9z-2" target="Cgh1rcnJDEIhUa558S9z-39">
          <mxGeometry relative="1" as="geometry" />
        </mxCell>
        <mxCell id="Cgh1rcnJDEIhUa558S9z-2" value="Estoque" style="rounded=0;whiteSpace=wrap;html=1;" vertex="1" parent="1">
          <mxGeometry x="625" y="270" width="120" height="60" as="geometry" />
        </mxCell>
        <mxCell id="Cgh1rcnJDEIhUa558S9z-21" style="edgeStyle=orthogonalEdgeStyle;rounded=0;orthogonalLoop=1;jettySize=auto;html=1;entryX=0.5;entryY=1;entryDx=0;entryDy=0;" edge="1" parent="1" source="Cgh1rcnJDEIhUa558S9z-3" target="Cgh1rcnJDEIhUa558S9z-4">
          <mxGeometry relative="1" as="geometry">
            <mxPoint x="310" y="400" as="targetPoint" />
          </mxGeometry>
        </mxCell>
        <mxCell id="Cgh1rcnJDEIhUa558S9z-83" style="edgeStyle=orthogonalEdgeStyle;rounded=0;orthogonalLoop=1;jettySize=auto;html=1;entryX=1;entryY=0.5;entryDx=0;entryDy=0;exitX=0;exitY=0.75;exitDx=0;exitDy=0;" edge="1" parent="1" source="Cgh1rcnJDEIhUa558S9z-3" target="Cgh1rcnJDEIhUa558S9z-82">
          <mxGeometry relative="1" as="geometry" />
        </mxCell>
        <mxCell id="Cgh1rcnJDEIhUa558S9z-3" value="Cliente" style="rounded=0;whiteSpace=wrap;html=1;" vertex="1" parent="1">
          <mxGeometry x="430" y="370" width="120" height="60" as="geometry" />
        </mxCell>
        <mxCell id="Cgh1rcnJDEIhUa558S9z-13" style="edgeStyle=orthogonalEdgeStyle;rounded=0;orthogonalLoop=1;jettySize=auto;html=1;entryX=0;entryY=0.5;entryDx=0;entryDy=0;" edge="1" parent="1" source="Cgh1rcnJDEIhUa558S9z-4" target="Cgh1rcnJDEIhUa558S9z-12">
          <mxGeometry relative="1" as="geometry" />
        </mxCell>
        <mxCell id="Cgh1rcnJDEIhUa558S9z-4" value="Pedido" style="rounded=0;whiteSpace=wrap;html=1;" vertex="1" parent="1">
          <mxGeometry x="210" y="250" width="120" height="60" as="geometry" />
        </mxCell>
        <mxCell id="Cgh1rcnJDEIhUa558S9z-10" style="edgeStyle=orthogonalEdgeStyle;rounded=0;orthogonalLoop=1;jettySize=auto;html=1;entryX=0;entryY=0.5;entryDx=0;entryDy=0;" edge="1" parent="1" source="Cgh1rcnJDEIhUa558S9z-5" target="Cgh1rcnJDEIhUa558S9z-6">
          <mxGeometry relative="1" as="geometry" />
        </mxCell>
        <mxCell id="Cgh1rcnJDEIhUa558S9z-5" value="Fornecedor" style="rounded=0;whiteSpace=wrap;html=1;" vertex="1" parent="1">
          <mxGeometry x="40" y="110" width="120" height="60" as="geometry" />
        </mxCell>
        <mxCell id="Cgh1rcnJDEIhUa558S9z-6" value="DisponibilizaProduto" style="rhombus;whiteSpace=wrap;html=1;" vertex="1" parent="1">
          <mxGeometry x="240" y="100" width="130" height="80" as="geometry" />
        </mxCell>
        <mxCell id="Cgh1rcnJDEIhUa558S9z-12" value="ProdutoPorPedido" style="rhombus;whiteSpace=wrap;html=1;" vertex="1" parent="1">
          <mxGeometry x="425" y="240" width="130" height="80" as="geometry" />
        </mxCell>
        <mxCell id="Cgh1rcnJDEIhUa558S9z-81" value="" style="edgeStyle=orthogonalEdgeStyle;rounded=0;orthogonalLoop=1;jettySize=auto;html=1;" edge="1" parent="1" source="Cgh1rcnJDEIhUa558S9z-15" target="Cgh1rcnJDEIhUa558S9z-66">
          <mxGeometry relative="1" as="geometry" />
        </mxCell>
        <mxCell id="Cgh1rcnJDEIhUa558S9z-15" value="&lt;u&gt;CPF&lt;/u&gt;" style="ellipse;whiteSpace=wrap;html=1;" vertex="1" parent="1">
          <mxGeometry x="320" y="680" width="80" height="40" as="geometry" />
        </mxCell>
        <mxCell id="Cgh1rcnJDEIhUa558S9z-30" style="edgeStyle=orthogonalEdgeStyle;rounded=0;orthogonalLoop=1;jettySize=auto;html=1;entryX=0.873;entryY=0.983;entryDx=0;entryDy=0;exitX=0;exitY=0.5;exitDx=0;exitDy=0;entryPerimeter=0;" edge="1" parent="1" source="Cgh1rcnJDEIhUa558S9z-16" target="Cgh1rcnJDEIhUa558S9z-3">
          <mxGeometry relative="1" as="geometry">
            <mxPoint x="490" y="440" as="targetPoint" />
          </mxGeometry>
        </mxCell>
        <mxCell id="Cgh1rcnJDEIhUa558S9z-16" value="&lt;u&gt;Identificaçao&lt;/u&gt;" style="ellipse;whiteSpace=wrap;html=1;" vertex="1" parent="1">
          <mxGeometry x="620" y="490" width="80" height="40" as="geometry" />
        </mxCell>
        <mxCell id="Cgh1rcnJDEIhUa558S9z-17" value="Endereço" style="ellipse;whiteSpace=wrap;html=1;" vertex="1" parent="1">
          <mxGeometry x="610" y="430" width="80" height="40" as="geometry" />
        </mxCell>
        <mxCell id="Cgh1rcnJDEIhUa558S9z-28" style="edgeStyle=orthogonalEdgeStyle;rounded=0;orthogonalLoop=1;jettySize=auto;html=1;entryX=1;entryY=0.5;entryDx=0;entryDy=0;" edge="1" parent="1" source="Cgh1rcnJDEIhUa558S9z-18" target="Cgh1rcnJDEIhUa558S9z-3">
          <mxGeometry relative="1" as="geometry" />
        </mxCell>
        <mxCell id="Cgh1rcnJDEIhUa558S9z-18" value="Nome" style="ellipse;whiteSpace=wrap;html=1;" vertex="1" parent="1">
          <mxGeometry x="610" y="380" width="80" height="40" as="geometry" />
        </mxCell>
        <mxCell id="Cgh1rcnJDEIhUa558S9z-62" style="edgeStyle=orthogonalEdgeStyle;rounded=0;orthogonalLoop=1;jettySize=auto;html=1;entryX=0.5;entryY=1;entryDx=0;entryDy=0;" edge="1" parent="1" source="Cgh1rcnJDEIhUa558S9z-22" target="Cgh1rcnJDEIhUa558S9z-12">
          <mxGeometry relative="1" as="geometry" />
        </mxCell>
        <mxCell id="Cgh1rcnJDEIhUa558S9z-22" value="frete" style="ellipse;whiteSpace=wrap;html=1;" vertex="1" parent="1">
          <mxGeometry x="340" y="320" width="80" height="40" as="geometry" />
        </mxCell>
        <mxCell id="Cgh1rcnJDEIhUa558S9z-58" style="edgeStyle=orthogonalEdgeStyle;rounded=0;orthogonalLoop=1;jettySize=auto;html=1;entryX=0.5;entryY=0;entryDx=0;entryDy=0;" edge="1" parent="1" source="Cgh1rcnJDEIhUa558S9z-23" target="Cgh1rcnJDEIhUa558S9z-4">
          <mxGeometry relative="1" as="geometry" />
        </mxCell>
        <mxCell id="Cgh1rcnJDEIhUa558S9z-23" value="Pendereço" style="ellipse;whiteSpace=wrap;html=1;" vertex="1" parent="1">
          <mxGeometry x="230" y="180" width="80" height="40" as="geometry" />
        </mxCell>
        <mxCell id="Cgh1rcnJDEIhUa558S9z-60" style="edgeStyle=orthogonalEdgeStyle;rounded=0;orthogonalLoop=1;jettySize=auto;html=1;entryX=0.25;entryY=1;entryDx=0;entryDy=0;" edge="1" parent="1" source="Cgh1rcnJDEIhUa558S9z-24" target="Cgh1rcnJDEIhUa558S9z-4">
          <mxGeometry relative="1" as="geometry" />
        </mxCell>
        <mxCell id="Cgh1rcnJDEIhUa558S9z-24" value="StatusEntrega" style="ellipse;whiteSpace=wrap;html=1;" vertex="1" parent="1">
          <mxGeometry x="100" y="310" width="80" height="40" as="geometry" />
        </mxCell>
        <mxCell id="Cgh1rcnJDEIhUa558S9z-50" style="edgeStyle=orthogonalEdgeStyle;rounded=0;orthogonalLoop=1;jettySize=auto;html=1;entryX=1;entryY=0.25;entryDx=0;entryDy=0;" edge="1" parent="1" source="Cgh1rcnJDEIhUa558S9z-25" target="Cgh1rcnJDEIhUa558S9z-1">
          <mxGeometry relative="1" as="geometry" />
        </mxCell>
        <mxCell id="Cgh1rcnJDEIhUa558S9z-25" value="IdProduto" style="ellipse;whiteSpace=wrap;html=1;" vertex="1" parent="1">
          <mxGeometry x="610" y="60" width="80" height="40" as="geometry" />
        </mxCell>
        <mxCell id="Cgh1rcnJDEIhUa558S9z-26" value="Idpedido" style="ellipse;whiteSpace=wrap;html=1;" vertex="1" parent="1">
          <mxGeometry x="100" y="190" width="80" height="40" as="geometry" />
        </mxCell>
        <mxCell id="Cgh1rcnJDEIhUa558S9z-27" value="IdCliente" style="ellipse;whiteSpace=wrap;html=1;" vertex="1" parent="1">
          <mxGeometry x="400" y="480" width="80" height="40" as="geometry" />
        </mxCell>
        <mxCell id="Cgh1rcnJDEIhUa558S9z-29" style="edgeStyle=orthogonalEdgeStyle;rounded=0;orthogonalLoop=1;jettySize=auto;html=1;entryX=1;entryY=0.75;entryDx=0;entryDy=0;" edge="1" parent="1" source="Cgh1rcnJDEIhUa558S9z-17" target="Cgh1rcnJDEIhUa558S9z-3">
          <mxGeometry relative="1" as="geometry">
            <mxPoint x="560" y="420" as="targetPoint" />
          </mxGeometry>
        </mxCell>
        <mxCell id="Cgh1rcnJDEIhUa558S9z-59" style="edgeStyle=orthogonalEdgeStyle;rounded=0;orthogonalLoop=1;jettySize=auto;html=1;" edge="1" parent="1" source="Cgh1rcnJDEIhUa558S9z-31" target="Cgh1rcnJDEIhUa558S9z-4">
          <mxGeometry relative="1" as="geometry" />
        </mxCell>
        <mxCell id="Cgh1rcnJDEIhUa558S9z-31" value="Descricao" style="ellipse;whiteSpace=wrap;html=1;" vertex="1" parent="1">
          <mxGeometry x="100" y="260" width="80" height="40" as="geometry" />
        </mxCell>
        <mxCell id="Cgh1rcnJDEIhUa558S9z-46" style="edgeStyle=orthogonalEdgeStyle;rounded=0;orthogonalLoop=1;jettySize=auto;html=1;entryX=0.133;entryY=-0.043;entryDx=0;entryDy=0;entryPerimeter=0;" edge="1" parent="1" source="Cgh1rcnJDEIhUa558S9z-32" target="Cgh1rcnJDEIhUa558S9z-1">
          <mxGeometry relative="1" as="geometry" />
        </mxCell>
        <mxCell id="Cgh1rcnJDEIhUa558S9z-32" value="Categoria" style="ellipse;whiteSpace=wrap;html=1;" vertex="1" parent="1">
          <mxGeometry x="390" width="80" height="40" as="geometry" />
        </mxCell>
        <mxCell id="Cgh1rcnJDEIhUa558S9z-33" value="Descricao" style="ellipse;whiteSpace=wrap;html=1;" vertex="1" parent="1">
          <mxGeometry x="570" y="10" width="80" height="40" as="geometry" />
        </mxCell>
        <mxCell id="Cgh1rcnJDEIhUa558S9z-34" value="Valor" style="ellipse;whiteSpace=wrap;html=1;" vertex="1" parent="1">
          <mxGeometry x="450" y="40" width="80" height="40" as="geometry" />
        </mxCell>
        <mxCell id="Cgh1rcnJDEIhUa558S9z-65" value="" style="edgeStyle=orthogonalEdgeStyle;rounded=0;orthogonalLoop=1;jettySize=auto;html=1;" edge="1" parent="1" source="Cgh1rcnJDEIhUa558S9z-35" target="Cgh1rcnJDEIhUa558S9z-5">
          <mxGeometry relative="1" as="geometry" />
        </mxCell>
        <mxCell id="Cgh1rcnJDEIhUa558S9z-35" value="Nome" style="ellipse;whiteSpace=wrap;html=1;" vertex="1" parent="1">
          <mxGeometry x="20" y="30" width="80" height="40" as="geometry" />
        </mxCell>
        <mxCell id="Cgh1rcnJDEIhUa558S9z-63" style="edgeStyle=orthogonalEdgeStyle;rounded=0;orthogonalLoop=1;jettySize=auto;html=1;exitX=0.5;exitY=1;exitDx=0;exitDy=0;entryX=0.89;entryY=-0.003;entryDx=0;entryDy=0;entryPerimeter=0;" edge="1" parent="1" source="Cgh1rcnJDEIhUa558S9z-36" target="Cgh1rcnJDEIhUa558S9z-5">
          <mxGeometry relative="1" as="geometry" />
        </mxCell>
        <mxCell id="Cgh1rcnJDEIhUa558S9z-36" value="CNPJ" style="ellipse;whiteSpace=wrap;html=1;" vertex="1" parent="1">
          <mxGeometry x="110" y="30" width="80" height="40" as="geometry" />
        </mxCell>
        <mxCell id="Cgh1rcnJDEIhUa558S9z-45" style="edgeStyle=orthogonalEdgeStyle;rounded=0;orthogonalLoop=1;jettySize=auto;html=1;entryX=1;entryY=0.5;entryDx=0;entryDy=0;" edge="1" parent="1" source="Cgh1rcnJDEIhUa558S9z-37" target="Cgh1rcnJDEIhUa558S9z-2">
          <mxGeometry relative="1" as="geometry" />
        </mxCell>
        <mxCell id="Cgh1rcnJDEIhUa558S9z-37" value="IdEstoque" style="ellipse;whiteSpace=wrap;html=1;" vertex="1" parent="1">
          <mxGeometry x="800" y="280" width="80" height="40" as="geometry" />
        </mxCell>
        <mxCell id="Cgh1rcnJDEIhUa558S9z-44" style="edgeStyle=orthogonalEdgeStyle;rounded=0;orthogonalLoop=1;jettySize=auto;html=1;entryX=0.5;entryY=1;entryDx=0;entryDy=0;" edge="1" parent="1" source="Cgh1rcnJDEIhUa558S9z-38" target="Cgh1rcnJDEIhUa558S9z-2">
          <mxGeometry relative="1" as="geometry" />
        </mxCell>
        <mxCell id="Cgh1rcnJDEIhUa558S9z-38" value="Local" style="ellipse;whiteSpace=wrap;html=1;" vertex="1" parent="1">
          <mxGeometry x="800" y="330" width="80" height="40" as="geometry" />
        </mxCell>
        <mxCell id="Cgh1rcnJDEIhUa558S9z-39" value="Estoqueproduto" style="rhombus;whiteSpace=wrap;html=1;" vertex="1" parent="1">
          <mxGeometry x="610" y="160" width="150" height="70" as="geometry" />
        </mxCell>
        <mxCell id="Cgh1rcnJDEIhUa558S9z-43" style="edgeStyle=orthogonalEdgeStyle;rounded=0;orthogonalLoop=1;jettySize=auto;html=1;entryX=1;entryY=0.5;entryDx=0;entryDy=0;" edge="1" parent="1" source="Cgh1rcnJDEIhUa558S9z-41" target="Cgh1rcnJDEIhUa558S9z-39">
          <mxGeometry relative="1" as="geometry" />
        </mxCell>
        <mxCell id="Cgh1rcnJDEIhUa558S9z-41" value="Quantidade" style="ellipse;whiteSpace=wrap;html=1;" vertex="1" parent="1">
          <mxGeometry x="800" y="175" width="80" height="40" as="geometry" />
        </mxCell>
        <mxCell id="Cgh1rcnJDEIhUa558S9z-47" style="edgeStyle=orthogonalEdgeStyle;rounded=0;orthogonalLoop=1;jettySize=auto;html=1;entryX=0.5;entryY=0;entryDx=0;entryDy=0;" edge="1" parent="1" source="Cgh1rcnJDEIhUa558S9z-34" target="Cgh1rcnJDEIhUa558S9z-1">
          <mxGeometry relative="1" as="geometry" />
        </mxCell>
        <mxCell id="Cgh1rcnJDEIhUa558S9z-48" style="edgeStyle=orthogonalEdgeStyle;rounded=0;orthogonalLoop=1;jettySize=auto;html=1;entryX=0.88;entryY=-0.017;entryDx=0;entryDy=0;entryPerimeter=0;" edge="1" parent="1" source="Cgh1rcnJDEIhUa558S9z-33" target="Cgh1rcnJDEIhUa558S9z-1">
          <mxGeometry relative="1" as="geometry" />
        </mxCell>
        <mxCell id="Cgh1rcnJDEIhUa558S9z-77" value="" style="edgeStyle=orthogonalEdgeStyle;rounded=0;orthogonalLoop=1;jettySize=auto;html=1;" edge="1" parent="1" source="Cgh1rcnJDEIhUa558S9z-49" target="Cgh1rcnJDEIhUa558S9z-67">
          <mxGeometry relative="1" as="geometry" />
        </mxCell>
        <mxCell id="Cgh1rcnJDEIhUa558S9z-49" value="&lt;u&gt;CNPJ&lt;/u&gt;" style="ellipse;whiteSpace=wrap;html=1;" vertex="1" parent="1">
          <mxGeometry x="570" y="680" width="80" height="40" as="geometry" />
        </mxCell>
        <mxCell id="Cgh1rcnJDEIhUa558S9z-52" style="edgeStyle=orthogonalEdgeStyle;rounded=0;orthogonalLoop=1;jettySize=auto;html=1;entryX=0.14;entryY=0.05;entryDx=0;entryDy=0;entryPerimeter=0;" edge="1" parent="1" source="Cgh1rcnJDEIhUa558S9z-26" target="Cgh1rcnJDEIhUa558S9z-4">
          <mxGeometry relative="1" as="geometry" />
        </mxCell>
        <mxCell id="Cgh1rcnJDEIhUa558S9z-53" style="edgeStyle=orthogonalEdgeStyle;rounded=0;orthogonalLoop=1;jettySize=auto;html=1;entryX=0.087;entryY=0.943;entryDx=0;entryDy=0;entryPerimeter=0;" edge="1" parent="1" source="Cgh1rcnJDEIhUa558S9z-27" target="Cgh1rcnJDEIhUa558S9z-3">
          <mxGeometry relative="1" as="geometry" />
        </mxCell>
        <mxCell id="Cgh1rcnJDEIhUa558S9z-56" style="edgeStyle=orthogonalEdgeStyle;rounded=0;orthogonalLoop=1;jettySize=auto;html=1;entryX=0;entryY=0;entryDx=0;entryDy=0;exitX=1;exitY=0.5;exitDx=0;exitDy=0;" edge="1" parent="1" source="Cgh1rcnJDEIhUa558S9z-55" target="Cgh1rcnJDEIhUa558S9z-12">
          <mxGeometry relative="1" as="geometry" />
        </mxCell>
        <mxCell id="Cgh1rcnJDEIhUa558S9z-55" value="Quantidade" style="ellipse;whiteSpace=wrap;html=1;" vertex="1" parent="1">
          <mxGeometry x="350" y="190" width="80" height="40" as="geometry" />
        </mxCell>
        <mxCell id="Cgh1rcnJDEIhUa558S9z-66" value="PessoaFisica" style="rounded=0;whiteSpace=wrap;html=1;" vertex="1" parent="1">
          <mxGeometry x="300" y="585" width="120" height="60" as="geometry" />
        </mxCell>
        <mxCell id="Cgh1rcnJDEIhUa558S9z-67" value="PessoaJuridica" style="rounded=0;whiteSpace=wrap;html=1;" vertex="1" parent="1">
          <mxGeometry x="550" y="585" width="120" height="60" as="geometry" />
        </mxCell>
        <mxCell id="Cgh1rcnJDEIhUa558S9z-70" value="" style="endArrow=classic;html=1;rounded=0;entryX=0.447;entryY=0.957;entryDx=0;entryDy=0;entryPerimeter=0;" edge="1" parent="1" target="Cgh1rcnJDEIhUa558S9z-3">
          <mxGeometry width="50" height="50" relative="1" as="geometry">
            <mxPoint x="484" y="540" as="sourcePoint" />
            <mxPoint x="440" y="430" as="targetPoint" />
          </mxGeometry>
        </mxCell>
        <mxCell id="Cgh1rcnJDEIhUa558S9z-71" value="" style="endArrow=none;html=1;rounded=0;entryX=0.5;entryY=0;entryDx=0;entryDy=0;" edge="1" parent="1" target="Cgh1rcnJDEIhUa558S9z-66">
          <mxGeometry width="50" height="50" relative="1" as="geometry">
            <mxPoint x="360" y="540" as="sourcePoint" />
            <mxPoint x="440" y="430" as="targetPoint" />
          </mxGeometry>
        </mxCell>
        <mxCell id="Cgh1rcnJDEIhUa558S9z-72" value="" style="endArrow=none;html=1;rounded=0;" edge="1" parent="1">
          <mxGeometry width="50" height="50" relative="1" as="geometry">
            <mxPoint x="360" y="540" as="sourcePoint" />
            <mxPoint x="610" y="540" as="targetPoint" />
          </mxGeometry>
        </mxCell>
        <mxCell id="Cgh1rcnJDEIhUa558S9z-73" value="" style="endArrow=none;html=1;rounded=0;entryX=0.5;entryY=0;entryDx=0;entryDy=0;" edge="1" parent="1" target="Cgh1rcnJDEIhUa558S9z-67">
          <mxGeometry width="50" height="50" relative="1" as="geometry">
            <mxPoint x="610" y="540" as="sourcePoint" />
            <mxPoint x="440" y="430" as="targetPoint" />
          </mxGeometry>
        </mxCell>
        <mxCell id="Cgh1rcnJDEIhUa558S9z-78" value="" style="edgeStyle=orthogonalEdgeStyle;rounded=0;orthogonalLoop=1;jettySize=auto;html=1;entryX=0.917;entryY=1.013;entryDx=0;entryDy=0;entryPerimeter=0;" edge="1" parent="1" source="Cgh1rcnJDEIhUa558S9z-74" target="Cgh1rcnJDEIhUa558S9z-66">
          <mxGeometry relative="1" as="geometry" />
        </mxCell>
        <mxCell id="Cgh1rcnJDEIhUa558S9z-74" value="id" style="ellipse;whiteSpace=wrap;html=1;" vertex="1" parent="1">
          <mxGeometry x="450" y="645" width="80" height="40" as="geometry" />
        </mxCell>
        <mxCell id="Cgh1rcnJDEIhUa558S9z-76" style="edgeStyle=orthogonalEdgeStyle;rounded=0;orthogonalLoop=1;jettySize=auto;html=1;entryX=1;entryY=0.5;entryDx=0;entryDy=0;exitX=0.5;exitY=0;exitDx=0;exitDy=0;" edge="1" parent="1" source="Cgh1rcnJDEIhUa558S9z-75" target="Cgh1rcnJDEIhUa558S9z-67">
          <mxGeometry relative="1" as="geometry" />
        </mxCell>
        <mxCell id="Cgh1rcnJDEIhUa558S9z-75" value="id" style="ellipse;whiteSpace=wrap;html=1;" vertex="1" parent="1">
          <mxGeometry x="680" y="680" width="80" height="40" as="geometry" />
        </mxCell>
        <mxCell id="Cgh1rcnJDEIhUa558S9z-82" value="FormaPagamento" style="rounded=0;whiteSpace=wrap;html=1;" vertex="1" parent="1">
          <mxGeometry x="120" y="430" width="120" height="60" as="geometry" />
        </mxCell>
        <mxCell id="Cgh1rcnJDEIhUa558S9z-84" value="Cartao" style="rounded=0;whiteSpace=wrap;html=1;" vertex="1" parent="1">
          <mxGeometry x="-20" y="585" width="120" height="60" as="geometry" />
        </mxCell>
        <mxCell id="Cgh1rcnJDEIhUa558S9z-87" style="edgeStyle=orthogonalEdgeStyle;rounded=0;orthogonalLoop=1;jettySize=auto;html=1;entryX=0.5;entryY=0;entryDx=0;entryDy=0;" edge="1" parent="1" source="Cgh1rcnJDEIhUa558S9z-86" target="Cgh1rcnJDEIhUa558S9z-82">
          <mxGeometry relative="1" as="geometry" />
        </mxCell>
        <mxCell id="Cgh1rcnJDEIhUa558S9z-86" value="IDFp" style="ellipse;whiteSpace=wrap;html=1;" vertex="1" parent="1">
          <mxGeometry y="390" width="80" height="40" as="geometry" />
        </mxCell>
        <mxCell id="Cgh1rcnJDEIhUa558S9z-89" style="edgeStyle=orthogonalEdgeStyle;rounded=0;orthogonalLoop=1;jettySize=auto;html=1;" edge="1" parent="1" source="Cgh1rcnJDEIhUa558S9z-88" target="Cgh1rcnJDEIhUa558S9z-82">
          <mxGeometry relative="1" as="geometry" />
        </mxCell>
        <mxCell id="Cgh1rcnJDEIhUa558S9z-88" value="Tipo" style="ellipse;whiteSpace=wrap;html=1;" vertex="1" parent="1">
          <mxGeometry y="440" width="80" height="40" as="geometry" />
        </mxCell>
        <mxCell id="Cgh1rcnJDEIhUa558S9z-90" value="Boleto" style="rounded=0;whiteSpace=wrap;html=1;" vertex="1" parent="1">
          <mxGeometry x="160" y="585" width="120" height="60" as="geometry" />
        </mxCell>
        <mxCell id="Cgh1rcnJDEIhUa558S9z-91" value="" style="endArrow=none;html=1;rounded=0;exitX=0.5;exitY=0;exitDx=0;exitDy=0;" edge="1" parent="1" source="Cgh1rcnJDEIhUa558S9z-84">
          <mxGeometry width="50" height="50" relative="1" as="geometry">
            <mxPoint x="390" y="620" as="sourcePoint" />
            <mxPoint x="40" y="550" as="targetPoint" />
          </mxGeometry>
        </mxCell>
        <mxCell id="Cgh1rcnJDEIhUa558S9z-92" value="" style="endArrow=none;html=1;rounded=0;entryX=0.5;entryY=0;entryDx=0;entryDy=0;" edge="1" parent="1" target="Cgh1rcnJDEIhUa558S9z-90">
          <mxGeometry width="50" height="50" relative="1" as="geometry">
            <mxPoint x="220" y="550" as="sourcePoint" />
            <mxPoint x="440" y="570" as="targetPoint" />
          </mxGeometry>
        </mxCell>
        <mxCell id="Cgh1rcnJDEIhUa558S9z-93" value="" style="endArrow=none;html=1;rounded=0;" edge="1" parent="1">
          <mxGeometry width="50" height="50" relative="1" as="geometry">
            <mxPoint x="40" y="550" as="sourcePoint" />
            <mxPoint x="220" y="550" as="targetPoint" />
          </mxGeometry>
        </mxCell>
        <mxCell id="Cgh1rcnJDEIhUa558S9z-94" value="" style="endArrow=classic;html=1;rounded=0;entryX=0.5;entryY=1;entryDx=0;entryDy=0;" edge="1" parent="1" target="Cgh1rcnJDEIhUa558S9z-82">
          <mxGeometry width="50" height="50" relative="1" as="geometry">
            <mxPoint x="130" y="550" as="sourcePoint" />
            <mxPoint x="440" y="570" as="targetPoint" />
          </mxGeometry>
        </mxCell>
        <mxCell id="Cgh1rcnJDEIhUa558S9z-96" value="" style="edgeStyle=orthogonalEdgeStyle;rounded=0;orthogonalLoop=1;jettySize=auto;html=1;" edge="1" parent="1" source="Cgh1rcnJDEIhUa558S9z-95" target="Cgh1rcnJDEIhUa558S9z-84">
          <mxGeometry relative="1" as="geometry" />
        </mxCell>
        <mxCell id="Cgh1rcnJDEIhUa558S9z-95" value="max_parcelas" style="ellipse;whiteSpace=wrap;html=1;" vertex="1" parent="1">
          <mxGeometry x="-160" y="595" width="80" height="40" as="geometry" />
        </mxCell>
        <mxCell id="Cgh1rcnJDEIhUa558S9z-98" style="edgeStyle=orthogonalEdgeStyle;rounded=0;orthogonalLoop=1;jettySize=auto;html=1;entryX=0;entryY=0.75;entryDx=0;entryDy=0;" edge="1" parent="1" source="Cgh1rcnJDEIhUa558S9z-97" target="Cgh1rcnJDEIhUa558S9z-84">
          <mxGeometry relative="1" as="geometry" />
        </mxCell>
        <mxCell id="Cgh1rcnJDEIhUa558S9z-97" value="parcelavel" style="ellipse;whiteSpace=wrap;html=1;" vertex="1" parent="1">
          <mxGeometry x="-160" y="660" width="80" height="40" as="geometry" />
        </mxCell>
        <mxCell id="Cgh1rcnJDEIhUa558S9z-100" style="edgeStyle=orthogonalEdgeStyle;rounded=0;orthogonalLoop=1;jettySize=auto;html=1;entryX=0.25;entryY=1;entryDx=0;entryDy=0;exitX=1;exitY=0.5;exitDx=0;exitDy=0;" edge="1" parent="1" source="Cgh1rcnJDEIhUa558S9z-99" target="Cgh1rcnJDEIhUa558S9z-84">
          <mxGeometry relative="1" as="geometry" />
        </mxCell>
        <mxCell id="Cgh1rcnJDEIhUa558S9z-99" value="bandeira" style="ellipse;whiteSpace=wrap;html=1;" vertex="1" parent="1">
          <mxGeometry x="-100" y="710" width="80" height="40" as="geometry" />
        </mxCell>
        <mxCell id="Cgh1rcnJDEIhUa558S9z-102" style="edgeStyle=orthogonalEdgeStyle;rounded=0;orthogonalLoop=1;jettySize=auto;html=1;entryX=0.165;entryY=-0.027;entryDx=0;entryDy=0;entryPerimeter=0;" edge="1" parent="1" source="Cgh1rcnJDEIhUa558S9z-101" target="Cgh1rcnJDEIhUa558S9z-84">
          <mxGeometry relative="1" as="geometry" />
        </mxCell>
        <mxCell id="Cgh1rcnJDEIhUa558S9z-101" value="id_cartao" style="ellipse;whiteSpace=wrap;html=1;" vertex="1" parent="1">
          <mxGeometry x="-160" y="520" width="80" height="40" as="geometry" />
        </mxCell>
        <mxCell id="Cgh1rcnJDEIhUa558S9z-104" style="edgeStyle=orthogonalEdgeStyle;rounded=0;orthogonalLoop=1;jettySize=auto;html=1;entryX=0;entryY=0.5;entryDx=0;entryDy=0;" edge="1" parent="1" source="Cgh1rcnJDEIhUa558S9z-103" target="Cgh1rcnJDEIhUa558S9z-90">
          <mxGeometry relative="1" as="geometry" />
        </mxCell>
        <mxCell id="Cgh1rcnJDEIhUa558S9z-103" value="vencimento" style="ellipse;whiteSpace=wrap;html=1;" vertex="1" parent="1">
          <mxGeometry x="90" y="690" width="80" height="40" as="geometry" />
        </mxCell>
        <mxCell id="Cgh1rcnJDEIhUa558S9z-105" value="codigo_barras" style="ellipse;whiteSpace=wrap;html=1;" vertex="1" parent="1">
          <mxGeometry x="140" y="740" width="80" height="40" as="geometry" />
        </mxCell>
        <mxCell id="Cgh1rcnJDEIhUa558S9z-106" style="edgeStyle=orthogonalEdgeStyle;rounded=0;orthogonalLoop=1;jettySize=auto;html=1;entryX=0.172;entryY=1;entryDx=0;entryDy=0;entryPerimeter=0;" edge="1" parent="1" source="Cgh1rcnJDEIhUa558S9z-105" target="Cgh1rcnJDEIhUa558S9z-90">
          <mxGeometry relative="1" as="geometry" />
        </mxCell>
        <mxCell id="Cgh1rcnJDEIhUa558S9z-109" style="edgeStyle=orthogonalEdgeStyle;rounded=0;orthogonalLoop=1;jettySize=auto;html=1;" edge="1" parent="1" source="Cgh1rcnJDEIhUa558S9z-107" target="Cgh1rcnJDEIhUa558S9z-90">
          <mxGeometry relative="1" as="geometry" />
        </mxCell>
        <mxCell id="Cgh1rcnJDEIhUa558S9z-107" value="id_boleto" style="ellipse;whiteSpace=wrap;html=1;" vertex="1" parent="1">
          <mxGeometry x="200" y="690" width="80" height="40" as="geometry" />
        </mxCell>
      </root>
    </mxGraphModel>
  </diagram>
</mxfile>
